# xmcd
#
# Track frame offsets: 
#        150
#        14097
#        36320
#        57072
#        64302
#        73982
#        90537
#        104697
#        123867
#        143032
#        164795
#        184252
#        210830
#        227070
#
# Disc length: 3347 seconds
#
# Revision: 4
# Processed by: cddbd v1.5.2PL0 Copyright (c) Steve Scherf et al.
# Submitted via: ExactAudioCopy v0.99pb3
#
DISCID=d00d110e
DTITLE=Santana - Foerver Gold [Cd 2]
DYEAR=1999
DGENRE=Instrumental Rock
TTITLE0=Touchdown Raiders
TTITLE1=Verao Vermelho
TTITLE2=Revelations
TTITLE3=Runnin´
TTITLE4=Primera Invasion
TTITLE5=Hannibal
TTITLE6=Samba De Sausalito
TTITLE7=Free Angela
TTITLE8=Oye Como Va
TTITLE9=Singing Winds, Crying Beats
TTITLE10=Jingo
TTITLE11=Toussaint L´ Overture
TTITLE12=Batuka
TTITLE13=Jungle Strut
EXTD=YEAR: 1999
EXTT0=
EXTT1=
EXTT2=
EXTT3=
EXTT4=
EXTT5=
EXTT6=
EXTT7=
EXTT8=
EXTT9=
EXTT10=
EXTT11=
EXTT12=
EXTT13=
PLAYORDER=
